<?xml version="1.0" standalone="no"?>
<!DOCTYPE svg PUBLIC "-//W3C//DTD SVG 20010904//EN"
 "http://www.w3.org/TR/2001/REC-SVG-20010904/DTD/svg10.dtd">
<svg version="1.0" xmlns="http://www.w3.org/2000/svg"
 width="1280.000000pt" height="1100.000000pt" viewBox="0 0 1280.000000 1100.000000"
 preserveAspectRatio="xMidYMid meet">
<metadata>
Created by potrace 1.15, written by Peter Selinger 2001-2017
</metadata>
<g transform="translate(0.000000,1100.000000) scale(0.100000,-0.100000)"
fill="#000000" stroke="none">
<path d="M3576 10984 c-3 -9 -6 -31 -6 -51 0 -41 -47 -144 -87 -191 -28 -32
-30 -32 -126 -36 -57 -2 -100 1 -104 7 -10 17 -129 1 -168 -22 -20 -11 -38
-21 -40 -21 -1 0 -11 34 -20 75 -19 87 -53 137 -81 120 -9 -6 -27 -40 -38 -75
-12 -36 -47 -109 -78 -163 -36 -63 -64 -127 -78 -180 -34 -129 -39 -141 -74
-163 l-33 -21 -29 24 c-67 54 -240 70 -325 29 -35 -16 -37 -16 -74 5 -77 46
-198 60 -294 35 -51 -13 -56 -12 -105 9 -63 29 -183 46 -267 39 -50 -5 -80 -2
-133 15 -37 11 -123 26 -190 32 -66 6 -159 19 -206 29 -47 10 -123 24 -170 30
-47 6 -152 25 -234 41 -81 17 -153 28 -158 27 -12 -4 260 -98 382 -132 47 -13
124 -40 172 -60 48 -20 125 -46 170 -57 46 -11 128 -43 183 -70 64 -32 132
-56 187 -68 54 -12 99 -28 120 -44 74 -56 207 -107 278 -107 26 0 43 -7 60
-25 60 -64 195 -125 275 -125 37 0 49 -6 95 -50 l53 -51 -43 -44 c-24 -25 -41
-47 -38 -50 3 -3 15 6 27 21 11 15 21 23 21 18 -1 -15 -27 -45 -42 -48 -32 -7
-57 -23 -84 -56 -29 -34 -23 -33 28 4 30 21 49 16 28 -9 -7 -8 -8 -15 -2 -15
5 0 18 12 27 28 19 28 85 91 97 92 11 0 -2 -30 -33 -75 -14 -22 -30 -50 -33
-62 -4 -13 -13 -23 -20 -23 -8 0 -19 -7 -26 -15 -7 -8 -29 -16 -49 -17 l-36
-1 33 -4 c35 -5 39 -11 20 -33 -7 -8 -3 -6 10 4 34 29 37 13 7 -39 -31 -51
-30 -70 0 -25 11 17 33 34 48 40 26 9 28 7 25 -13 -2 -14 2 -21 10 -19 8 1 12
-3 10 -10 -5 -13 -61 -36 -108 -43 -14 -2 -61 -15 -105 -29 l-80 -26 65 6 c36
3 93 12 128 20 35 8 72 14 83 14 19 0 19 0 0 -37 -10 -21 -29 -47 -41 -58 -25
-23 -90 -109 -90 -120 0 -4 35 27 77 69 42 42 78 74 80 72 2 -1 -4 -23 -13
-47 -8 -24 -17 -56 -18 -70 -1 -15 -21 -56 -45 -93 -24 -36 -61 -107 -83 -158
-44 -104 -66 -132 -114 -150 -18 -6 -31 -15 -28 -19 2 -5 11 -6 19 -2 8 3 15
2 15 -1 0 -14 -75 -123 -99 -143 -15 -13 -20 -22 -13 -23 25 0 68 38 106 93
21 30 55 64 77 76 21 12 39 20 39 16 0 -3 -9 -24 -20 -45 -11 -22 -18 -40 -15
-40 3 0 0 -10 -6 -22 -11 -21 -11 -22 5 -9 10 8 33 44 51 80 23 44 34 59 35
44 0 -35 -156 -468 -184 -510 -14 -21 -26 -44 -26 -51 0 -7 -9 -31 -21 -53
-24 -47 -19 -85 15 -127 13 -15 29 -49 36 -77 7 -27 33 -90 59 -140 56 -109
88 -135 168 -135 47 0 55 -3 62 -23 10 -26 51 -46 161 -80 41 -12 74 -27 73
-32 -4 -21 -66 -22 -136 -4 -103 27 -106 22 -7 -11 l85 -28 -55 -2 c-30 -1
-102 -4 -159 -6 -64 -2 -134 3 -179 11 -86 17 -111 13 -31 -4 114 -25 199 -33
327 -33 72 0 132 -2 132 -5 0 -32 -60 -73 -107 -73 -15 0 -35 -5 -43 -10 -11
-7 -3 -10 30 -11 l45 -2 -60 -13 -60 -13 53 5 c28 2 52 2 52 -2 0 -14 -114
-135 -139 -148 -41 -21 -260 -66 -333 -68 -52 -2 -64 -6 -56 -15 6 -7 18 -14
27 -14 9 -1 0 -5 -19 -9 -26 -6 -15 -8 45 -8 44 1 98 -3 119 -7 l39 -8 -24
-18 c-17 -13 -43 -19 -89 -20 -61 -2 -62 -2 -20 -8 41 -6 43 -7 25 -19 l-20
-14 20 7 c49 17 58 18 50 6 -6 -10 -3 -11 13 -2 11 6 38 11 59 11 l38 -1 -25
-20 c-14 -12 -25 -26 -25 -33 0 -6 -40 -32 -90 -58 -70 -36 -83 -46 -60 -45
18 1 67 25 125 63 69 46 108 64 144 70 57 8 57 10 -15 -81 -57 -73 -121 -134
-214 -207 -70 -54 -230 -152 -293 -177 -19 -8 -29 -17 -23 -21 6 -3 -16 -19
-50 -35 -33 -16 -63 -33 -66 -38 -3 -4 27 8 66 28 40 19 69 40 66 45 -3 5 3 8
12 8 10 -1 69 24 131 55 62 31 110 52 107 47 -4 -6 -24 -19 -46 -30 -21 -11
-39 -22 -39 -25 0 -2 83 36 185 85 190 91 230 103 102 29 -107 -61 -119 -70
-113 -77 4 -3 58 21 121 53 63 33 117 56 121 52 4 -4 -3 -21 -16 -39 -38 -52
-24 -40 286 234 l21 19 -3 -63 c-5 -86 -36 -182 -82 -253 -81 -127 -136 -253
-172 -396 -38 -154 -73 -191 -245 -255 -16 -5 -11 -9 24 -15 24 -5 46 -11 49
-14 3 -3 -23 -62 -58 -130 -59 -117 -67 -127 -114 -155 -47 -27 -49 -30 -23
-30 16 0 26 -4 22 -10 -3 -5 11 0 31 13 54 32 119 103 164 178 44 75 80 108
151 145 57 28 58 25 30 -58 -24 -70 -59 -125 -105 -166 -20 -18 -33 -32 -29
-32 4 0 33 26 65 57 32 31 60 54 63 52 3 -3 -9 -25 -26 -49 -19 -26 -27 -46
-21 -52 18 -18 81 96 131 235 48 133 68 174 79 162 3 -3 12 14 20 37 8 24 20
50 26 58 7 8 24 44 39 80 32 77 100 161 118 143 8 -8 6 -19 -6 -42 -11 -22
-17 -65 -19 -144 -2 -61 -2 -87 0 -57 4 67 24 159 36 166 9 6 4 -61 -13 -156
-6 -36 -12 -117 -13 -180 -2 -112 -3 -117 -45 -210 -23 -52 -47 -104 -52 -115
-20 -40 -49 -67 -76 -70 -135 -15 -275 -24 -308 -20 -22 3 -119 7 -215 10
-107 2 -202 10 -245 20 -113 26 -227 45 -266 45 -82 0 -327 -112 -410 -187
-45 -41 -98 -123 -162 -253 -75 -154 -410 -575 -688 -865 -137 -144 -158 -175
-217 -327 -116 -298 -138 -418 -122 -655 17 -257 29 -333 54 -333 8 0 105 69
218 153 112 83 236 176 276 205 95 68 100 80 79 190 -15 78 -20 90 -54 120
-20 17 -42 32 -48 32 -18 0 -41 31 -55 73 -10 32 -9 42 5 63 14 22 20 24 64
18 93 -12 138 32 348 347 159 237 246 355 316 429 24 25 71 81 104 125 70 93
177 196 233 225 26 13 59 20 98 20 64 0 337 -58 546 -116 112 -31 267 -69 429
-105 27 -6 51 -18 54 -26 4 -9 8 -11 12 -4 5 7 83 -10 226 -49 121 -33 227
-60 236 -60 27 0 28 -10 4 -64 -20 -46 -49 -133 -120 -366 -13 -41 -32 -145
-44 -230 -43 -315 -80 -441 -205 -690 -51 -102 -105 -226 -120 -275 -15 -50
-41 -126 -57 -170 -16 -44 -36 -116 -44 -160 -20 -107 -15 -96 -210 -511 -92
-196 -353 -604 -441 -689 -29 -27 -93 -75 -143 -105 -49 -30 -117 -71 -150
-92 -38 -23 -86 -68 -138 -128 -127 -150 -233 -290 -240 -317 -13 -54 86 -105
267 -139 96 -17 368 -30 423 -20 55 10 89 46 136 141 l43 86 -21 65 c-25 76
-26 96 -7 132 17 32 71 84 106 102 13 7 53 12 88 12 77 -2 126 20 170 75 39
50 64 101 157 318 83 195 224 479 279 562 18 28 55 92 81 141 26 49 76 122
112 163 78 89 157 206 174 257 17 53 185 384 268 530 39 68 142 230 230 360
87 130 170 259 186 285 15 26 61 78 103 115 96 85 145 135 203 203 48 57 92
79 157 79 17 0 109 -24 204 -54 451 -142 1204 -320 1598 -378 133 -19 192 -22
415 -21 353 2 474 20 1013 154 110 28 134 31 142 20 4 -8 32 -111 60 -230 29
-119 70 -270 92 -335 45 -139 166 -403 319 -701 120 -235 149 -311 149 -397 0
-143 -98 -280 -415 -580 -233 -220 -364 -323 -560 -441 -60 -36 -128 -79 -150
-96 -87 -67 -115 -81 -235 -116 -179 -52 -273 -100 -340 -172 -99 -106 -280
-374 -296 -438 -12 -48 86 -79 308 -97 177 -14 356 -1 398 30 32 24 99 157
100 198 0 17 -9 43 -20 57 -11 14 -21 35 -22 48 -4 31 43 48 133 48 53 1 72
-3 93 -20 14 -11 42 -25 62 -31 64 -17 127 23 309 202 88 86 198 187 245 225
135 111 338 285 576 496 213 190 223 197 273 204 64 9 116 23 86 24 -11 0 -39
-4 -63 -8 -57 -11 -51 2 29 60 99 73 169 140 191 182 29 58 34 126 13 189 -81
248 -114 419 -140 743 -15 187 -20 405 -10 405 13 0 115 -56 169 -93 32 -22
97 -57 144 -79 107 -49 139 -71 337 -231 151 -122 332 -250 438 -311 26 -15
47 -31 47 -35 0 -5 -22 -26 -49 -46 -46 -36 -121 -116 -121 -131 0 -3 18 13
41 37 36 39 38 40 17 9 -40 -58 -64 -104 -87 -164 -25 -66 -26 -78 -6 -52 13
17 15 17 15 3 0 -36 -45 -104 -98 -149 -61 -51 -83 -56 -37 -8 52 54 14 31
-57 -34 -47 -44 -85 -70 -119 -81 -49 -16 -70 -32 -26 -20 22 6 22 6 2 -10
-29 -23 -242 -89 -410 -127 -79 -17 -143 -34 -140 -36 2 -2 61 8 131 22 70 14
146 26 168 27 30 0 36 3 22 8 -17 6 -13 9 20 18 21 6 75 23 119 36 44 14 72
20 61 14 -10 -7 -38 -25 -61 -40 -32 -20 -50 -26 -69 -21 -21 5 -25 3 -20 -9
4 -12 -7 -20 -53 -32 -74 -21 -85 -25 -223 -78 -141 -54 -189 -78 -215 -108
-11 -12 -14 -19 -7 -15 20 12 14 -4 -18 -44 -34 -43 -95 -168 -86 -177 3 -3
11 7 17 23 l12 29 7 -30 c7 -26 8 -24 9 18 1 62 19 95 78 144 46 38 132 93
146 93 13 0 7 -20 -5 -20 -16 -1 -86 -60 -71 -60 6 0 16 7 23 15 7 8 17 15 22
15 5 0 -11 -23 -36 -51 -47 -52 -66 -98 -66 -159 1 -44 15 -109 28 -122 5 -5
3 15 -5 44 -14 56 -10 122 11 148 7 8 19 30 26 48 7 18 29 45 49 60 59 46 227
113 311 124 20 2 25 -1 23 -17 -1 -11 -5 -51 -8 -90 -7 -67 -9 -72 -53 -115
-26 -25 -75 -60 -109 -78 -33 -17 -75 -49 -93 -70 -17 -20 -43 -49 -57 -64
-17 -19 -20 -28 -10 -28 11 0 13 -15 11 -72 -2 -51 0 -66 6 -51 5 13 11 23 13
23 3 0 30 -38 61 -85 31 -47 59 -85 62 -85 3 0 -2 10 -10 22 -9 12 -16 32 -16
43 0 17 5 15 31 -15 34 -39 30 -26 -13 37 -42 63 -38 89 27 155 42 43 71 62
124 83 39 14 87 39 108 54 49 35 70 43 77 28 2 -7 5 -4 5 6 1 9 6 17 11 17 6
0 10 -8 11 -17 0 -16 1 -15 8 1 6 16 11 10 27 -34 21 -60 131 -236 141 -226 4
4 1 12 -5 18 -7 7 -12 21 -12 31 0 14 18 2 75 -48 41 -37 75 -62 75 -56 0 7
-28 47 -63 89 -84 103 -109 145 -121 206 -16 80 -10 175 12 205 21 28 166 111
195 111 18 0 94 32 172 72 22 11 60 30 85 43 98 50 242 172 293 250 43 66 80
99 196 178 80 55 95 46 39 -27 l-32 -41 45 42 c25 24 49 43 55 43 6 0 50 -40
97 -89 82 -83 87 -90 77 -116 -17 -43 -30 -67 -72 -123 -22 -30 -38 -56 -35
-58 8 -8 76 75 104 128 25 48 28 51 31 26 4 -32 -38 -115 -76 -150 -15 -14
-52 -40 -82 -57 -65 -37 -60 -41 9 -7 63 33 102 66 147 128 52 70 54 45 4 -38
-22 -37 -39 -69 -37 -71 3 -2 20 22 38 53 19 32 39 59 44 61 14 4 74 -164 93
-258 l15 -78 -33 -93 c-18 -51 -57 -146 -87 -211 -30 -66 -52 -121 -50 -123 2
-3 14 18 26 46 12 28 35 73 51 100 17 28 29 54 28 58 -3 9 52 152 58 152 2 0
4 -18 4 -39 0 -28 -8 -49 -27 -73 -15 -18 -20 -27 -10 -19 26 21 27 11 5 -49
-21 -57 -23 -66 -57 -190 -22 -79 -36 -214 -22 -205 5 3 15 -19 21 -48 13 -52
67 -198 77 -207 4 -3 3 3 0 13 -4 9 -4 17 0 17 3 0 12 -8 20 -17 10 -12 10 -9
-1 7 -68 107 -70 111 -72 199 l-3 86 14 -50 c7 -27 14 -41 15 -30 1 13 7 4 17
-23 8 -24 16 -42 18 -40 2 2 -3 33 -10 69 -8 45 -9 87 -4 130 9 64 42 181 59
209 29 48 64 -126 81 -399 5 -90 7 -166 4 -169 -3 -3 -15 3 -27 14 -13 10 -8
2 11 -18 31 -34 33 -40 29 -90 -3 -34 -18 -82 -42 -131 -35 -74 -41 -80 -91
-102 -30 -14 -64 -38 -78 -57 -39 -52 -193 -313 -205 -347 -14 -39 11 -73 71
-95 153 -57 528 -62 637 -8 35 17 77 85 108 173 18 52 16 67 -22 144 -19 39
-37 91 -41 115 -13 91 52 204 155 265 73 43 96 157 60 285 -31 109 -30 114 5
119 30 4 30 4 -10 16 -27 8 -44 20 -54 39 -22 46 -155 715 -166 836 -4 36 -12
90 -20 120 -43 168 -38 257 20 432 19 57 32 87 29 68 -2 -19 -7 -64 -9 -100
-2 -36 -2 -51 1 -35 21 131 46 228 71 269 15 25 31 46 34 46 4 0 10 -17 14
-37 3 -20 22 -75 42 -122 48 -117 62 -171 69 -276 8 -104 24 -149 23 -65 0 30
-4 76 -8 102 -4 27 -4 49 1 50 5 2 -2 29 -17 61 -32 73 -32 86 1 23 31 -58 38
-101 39 -226 0 -83 2 -93 13 -72 6 13 12 47 12 76 0 36 3 47 10 36 8 -12 10
-10 10 8 0 13 -4 21 -9 18 -5 -3 -11 4 -15 17 -8 32 -7 39 4 32 13 -8 13 -1
-4 59 -65 227 -74 315 -46 451 12 60 15 66 20 40 6 -29 7 -28 15 15 l8 45 23
-60 c16 -42 23 -82 23 -132 1 -40 5 -73 10 -73 5 0 18 -33 30 -72 30 -101 61
-160 90 -170 22 -8 23 -7 10 9 -13 16 -12 17 3 5 37 -29 60 -95 64 -179 2 -46
8 -102 14 -125 15 -65 12 -134 -10 -260 -31 -179 -32 -189 -15 -133 8 28 20
82 25 120 6 39 13 84 16 100 7 29 7 29 15 7 5 -13 5 -74 1 -135 -15 -225 0
-409 33 -408 6 0 31 -33 57 -73 25 -40 55 -79 65 -87 17 -13 17 -13 3 5 -14
18 -13 19 3 13 10 -4 -5 16 -32 43 -48 48 -82 118 -80 164 0 15 6 10 20 -19
11 -22 17 -31 14 -20 -4 16 -1 15 13 -5 9 -14 39 -47 66 -75 l49 -50 -42 48
c-24 27 -54 74 -68 105 -23 50 -26 71 -27 174 -1 72 3 121 10 128 8 8 25 -2
62 -35 70 -63 88 -96 107 -200 24 -129 56 -202 117 -266 28 -30 49 -46 45 -36
-8 22 -3 21 68 -3 32 -11 65 -20 74 -19 9 0 0 5 -19 11 -41 12 -62 27 -54 39
3 5 -3 9 -14 9 -54 0 -97 113 -107 282 -4 64 -4 122 0 127 4 7 24 2 57 -15 27
-14 52 -23 54 -21 3 2 -16 14 -42 26 -53 25 -55 36 -3 20 19 -6 49 -12 66 -14
52 -5 97 -17 111 -28 9 -7 16 -7 23 0 8 8 -14 16 -72 29 -98 21 -181 71 -239
145 -33 41 -39 59 -45 115 -5 42 -3 87 5 122 7 30 14 87 16 126 2 39 6 78 9
86 9 28 -23 234 -43 280 -40 92 -51 208 -33 350 l7 55 6 -75 c4 -41 11 -86 17
-100 8 -19 8 -14 3 25 -12 86 -8 237 7 273 l14 34 31 -55 c39 -69 95 -143 106
-140 12 3 70 -68 68 -82 -2 -5 8 -32 21 -59 16 -32 26 -76 31 -130 l7 -81 1
70 c1 67 -6 116 -24 160 -7 18 -6 19 10 6 11 -10 5 10 -18 52 -20 37 -52 97
-72 134 -41 76 -64 182 -63 281 1 39 4 57 7 44 4 -12 8 26 9 85 0 59 6 119 11
133 l10 25 10 -25 c5 -14 15 -59 21 -100 7 -41 16 -77 20 -80 5 -3 11 -36 15
-75 9 -97 52 -219 101 -284 22 -30 47 -57 55 -59 8 -3 1 11 -17 31 -54 62 -81
118 -103 216 -22 100 -23 161 -1 76 9 -36 15 -45 22 -35 7 13 9 13 9 -1 0 -18
70 -162 75 -157 2 2 -9 30 -26 63 -18 37 -39 108 -54 185 -13 69 -31 150 -40
180 -8 30 -15 67 -15 82 0 15 -16 69 -35 121 -19 51 -39 115 -44 142 -5 28
-14 63 -20 78 -17 44 -13 52 11 21 34 -45 100 -114 133 -137 27 -19 26 -16
-10 23 -21 25 -48 53 -60 63 -17 15 -13 14 23 -3 64 -31 60 -19 -4 14 -77 41
-108 95 -110 193 -1 43 2 70 8 67 10 -6 4 26 -19 101 -22 71 -38 100 -105 187
-32 42 -58 80 -58 84 0 5 17 -8 37 -27 26 -24 21 -14 -18 31 -80 95 -119 154
-89 135 5 -3 -13 25 -41 62 -34 46 -68 111 -104 203 -30 74 -54 130 -55 123 0
-6 5 -24 10 -39 6 -15 9 -28 7 -31 -2 -2 -19 37 -36 87 -18 49 -37 90 -42 90
-11 0 -40 56 -32 64 3 3 -1 14 -9 23 -8 10 -34 57 -57 105 -23 47 -58 102 -77
122 -19 19 -34 37 -34 40 0 15 248 -155 390 -268 35 -28 61 -46 57 -39 -4 6
-65 55 -135 108 -70 53 -127 102 -127 108 0 6 -32 28 -71 48 -39 20 -107 59
-150 88 -77 51 -91 66 -33 35 17 -8 33 -14 35 -12 2 2 -57 33 -132 68 -134 63
-189 98 -97 62 79 -32 90 -35 74 -24 -11 8 -11 11 0 16 8 3 3 3 -10 0 -14 -4
-21 -2 -18 3 6 9 -148 53 -185 53 -9 0 -19 3 -22 8 -9 15 121 10 189 -8 81
-20 239 -53 337 -69 37 -6 75 -14 84 -18 11 -4 15 -2 11 4 -4 6 -32 16 -64 22
-32 6 -85 23 -118 36 -33 14 -65 25 -71 25 -6 0 -17 6 -23 14 -6 7 -27 16 -46
19 -19 3 -48 15 -63 26 -32 22 -147 41 -258 41 -41 0 -74 4 -74 8 0 9 279 27
360 23 93 -4 28 9 -121 25 -172 18 -304 14 -414 -12 -38 -9 -90 -18 -115 -20
-25 -1 -91 -6 -146 -10 -107 -7 -257 2 -249 16 9 15 -111 18 -210 5 -55 -7
-134 -12 -175 -11 -85 2 -91 5 -220 110 -172 140 -429 295 -680 408 -313 142
-454 188 -690 227 -219 36 -270 39 -1100 71 -711 27 -1239 114 -1457 240 -48
28 -53 34 -53 66 0 34 30 105 54 130 14 13 56 256 56 315 0 33 -19 95 -67 224
-11 28 -33 72 -51 99 -41 63 -88 177 -111 269 -10 39 -29 97 -41 127 -15 37
-25 89 -30 160 -9 121 -21 162 -96 319 -30 62 -54 120 -54 129 0 8 -16 34 -35
58 -19 23 -35 47 -35 52 0 5 -7 12 -15 16 -8 3 -15 15 -15 26 0 11 -10 29 -22
40 -62 56 -59 52 -43 70 16 18 20 42 8 54 -5 4 -8 11 -8 14 -2 24 -19 54 -36
62 -10 6 -19 17 -19 24 0 7 -15 29 -32 48 -18 19 -44 53 -57 75 -13 22 -38 57
-57 77 -19 20 -34 43 -34 50 0 15 -32 46 -47 46 -6 0 -16 7 -23 15 -10 12 -10
18 0 30 17 21 -5 89 -37 115 -13 10 -23 21 -23 25 0 17 -116 124 -140 129 -15
2 -55 33 -90 68 -35 35 -73 68 -85 74 -13 7 -19 18 -17 34 3 32 -24 87 -51
101 -12 7 -30 23 -40 36 -10 12 -25 23 -32 23 -8 0 -19 9 -25 20 -6 10 -29 25
-53 31 -23 7 -65 22 -94 35 -28 13 -57 24 -62 24 -6 0 -11 4 -11 10 0 5 -12
13 -27 16 -36 9 -53 22 -53 43 0 24 -55 72 -115 100 -27 13 -63 31 -78 39 -16
8 -50 16 -75 17 -69 5 -135 16 -154 26 -9 5 -33 9 -52 9 -25 0 -38 6 -46 19
-11 22 -64 51 -92 51 -11 0 -41 7 -68 16 -56 18 -60 27 -60 132 0 94 -34 167
-54 116z m-1176 -1474 c0 -5 -7 -10 -16 -10 -8 0 -12 5 -9 10 3 6 10 10 16 10
5 0 9 -4 9 -10z m-73 -555 c-11 -30 -35 -72 -54 -92 l-33 -38 36 70 c68 129
84 148 51 60z m378 -1322 c-4 -10 -10 -26 -12 -35 -6 -21 -13 -22 -48 -6 -34
15 -32 23 13 41 49 20 55 20 47 0z m3338 -223 c-7 -43 -50 -130 -63 -130 -17
0 -11 74 9 114 11 21 23 52 27 69 3 18 9 36 12 42 10 16 22 -57 15 -95z
m-3393 -309 c0 -34 -92 -156 -134 -178 -17 -9 -44 -27 -60 -40 -53 -44 -38
-15 43 85 91 113 151 166 151 133z m181 -57 c-12 -19 -21 -41 -21 -47 0 -19
-21 -89 -26 -85 -8 9 16 121 31 144 25 38 39 28 16 -12z m-380 -218 c-18 -18
-77 -57 -131 -85 -100 -52 -140 -67 -82 -30 17 12 32 25 32 31 0 18 64 63 134
94 39 17 73 29 75 27 3 -2 -10 -18 -28 -37z m559 -374 c0 -10 -18 -37 -39 -60
-40 -42 -51 -50 -51 -33 0 8 81 110 88 111 1 0 2 -8 2 -18z m-422 -112 c-52
-165 -59 -179 -104 -227 -25 -28 -41 -39 -37 -28 3 11 9 25 13 30 4 6 24 55
45 110 20 55 42 109 48 120 20 39 58 97 62 93 1 -1 -11 -46 -27 -98z m335
-622 c2 -7 -7 -34 -22 -60 -22 -40 -31 -48 -55 -48 l-28 0 24 33 c13 17 33 44
44 59 21 30 30 34 37 16z m8916 -117 c35 -46 95 -151 88 -157 -2 -3 -24 28
-48 68 -24 40 -66 97 -94 127 -46 51 -47 53 -12 26 21 -15 50 -44 66 -64z
m146 -39 c-3 -3 -11 0 -18 7 -9 10 -8 11 6 5 10 -3 15 -9 12 -12z m-1436 -250
c13 -26 42 -76 66 -112 23 -36 48 -74 54 -85 11 -19 12 -19 6 3 -14 50 9 15
80 -125 41 -82 93 -177 115 -213 59 -93 70 -141 81 -346 9 -180 9 -181 -16
-255 -37 -107 -39 -120 -11 -65 14 27 27 50 28 52 2 1 4 -37 4 -84 3 -134 6
-162 17 -155 12 8 4 -107 -10 -132 -7 -12 -9 1 -7 42 4 72 -1 54 -16 -62 -11
-86 -15 -96 -96 -234 -46 -79 -82 -146 -80 -148 3 -3 11 8 19 24 8 15 29 46
47 68 17 22 40 61 52 87 11 25 26 49 33 51 7 3 16 18 19 34 4 15 22 51 40 78
18 28 38 59 44 70 l11 20 1 -20 c0 -24 -24 -104 -41 -137 -6 -13 -28 -41 -48
-63 -31 -33 -116 -168 -158 -248 -8 -15 -20 -4 -85 70 -139 160 -172 211 -212
326 -30 86 -31 120 -11 267 8 58 15 179 15 270 0 91 7 219 15 285 24 203 30
531 11 663 -9 62 -16 117 -16 122 0 23 28 -5 49 -48z m216 -202 c25 -43 60
-114 76 -156 16 -42 38 -89 49 -104 11 -16 20 -31 20 -35 0 -27 -96 107 -142
200 -14 28 -33 75 -42 107 -27 93 -22 92 39 -12z m1380 -135 c11 -16 14 -26 8
-22 -14 9 -83 128 -83 143 0 5 13 -13 28 -41 15 -27 37 -63 47 -80z m69 -105
c20 -30 39 -53 42 -52 3 2 8 1 11 -1 3 -3 -2 -4 -11 -3 -16 2 -78 78 -90 111
-10 27 4 12 48 -55z m294 -563 l-3 -72 -14 80 c-7 44 -15 96 -17 115 l-4 35
21 -43 c15 -33 19 -58 17 -115z m-79 84 c19 -57 11 -80 -9 -26 -10 28 -19 57
-19 65 -1 22 15 0 28 -39z m-54 -602 c9 -50 14 -93 12 -96 -10 -10 -38 97 -43
162 -6 92 10 59 31 -66z m-1360 -242 c-21 -71 -104 -182 -122 -163 -11 11 50
129 91 174 21 23 40 41 42 39 2 -2 -3 -24 -11 -50z m1252 -116 c13 -30 28 -77
34 -105 10 -55 2 -156 -12 -156 -5 0 -6 24 -3 53 4 36 1 66 -10 97 -9 25 -19
56 -21 70 -2 14 -13 50 -24 80 -27 70 -1 42 36 -39z m-353 -232 c14 12 16 6
16 -57 0 -39 -4 -73 -8 -76 -14 -9 -42 62 -42 107 0 29 3 38 9 28 8 -12 12
-12 25 -2z m438 -957 l3 -191 -21 20 c-36 34 -49 123 -36 247 7 59 12 132 13
162 l0 55 19 -51 c14 -42 19 -90 22 -242z m-2253 -104 c-39 -52 -89 -97 -107
-98 -7 0 -32 -13 -55 -29 -23 -15 -80 -45 -127 -66 -47 -21 -103 -51 -124 -66
-22 -16 -46 -29 -53 -29 -7 0 -13 -6 -14 -12 0 -10 -2 -10 -6 -1 -5 14 1 22
74 102 46 50 65 62 150 96 119 46 219 95 253 124 40 33 44 24 9 -21z m-1169
-332 c0 -2 -7 -7 -16 -10 -8 -3 -12 -2 -9 4 6 10 25 14 25 6z m706 -310 c20
-30 33 -59 30 -65 -4 -6 1 -22 10 -36 9 -14 15 -28 12 -31 -7 -6 -59 73 -63
97 -2 10 -11 29 -19 41 -15 22 -21 48 -11 48 3 0 21 -24 41 -54z m143 -166
l46 -55 -57 48 c-60 51 -88 87 -88 112 0 11 9 5 27 -17 15 -18 47 -58 72 -88z"/>
<path d="M9630 1456 c0 -2 8 -10 18 -17 15 -13 16 -12 3 4 -13 16 -21 21 -21
13z"/>
<path d="M2358 7353 c12 -2 32 -2 45 0 12 2 2 4 -23 4 -25 0 -35 -2 -22 -4z"/>
<path d="M2248 7343 c7 -3 16 -2 19 1 4 3 -2 6 -13 5 -11 0 -14 -3 -6 -6z"/>
<path d="M2100 6989 c-14 -6 -56 -19 -95 -29 -38 -11 -62 -19 -51 -19 27 -1
136 28 166 44 29 16 16 18 -20 4z"/>
<path d="M1900 6770 c-8 -5 -10 -10 -5 -10 6 0 17 5 25 10 8 5 11 10 5 10 -5
0 -17 -5 -25 -10z"/>
<path d="M1795 6727 c-81 -37 -185 -95 -185 -103 0 -3 24 8 53 24 28 17 90 48
137 70 47 22 81 40 75 41 -5 0 -42 -15 -80 -32z"/>
<path d="M2194 6534 c-18 -14 -18 -15 4 -4 12 6 22 13 22 15 0 8 -5 6 -26 -11z"/>
<path d="M1878 6524 c-38 -20 -36 -28 2 -9 17 9 30 18 30 20 0 7 -1 6 -32 -11z"/>
<path d="M2144 6504 c-18 -14 -18 -15 4 -4 12 6 22 13 22 15 0 8 -5 6 -26 -11z"/>
<path d="M1374 6458 l-19 -23 23 19 c21 18 27 26 19 26 -2 0 -12 -10 -23 -22z"/>
<path d="M1329 6423 c-13 -16 -12 -17 4 -4 16 13 21 21 13 21 -2 0 -10 -8 -17
-17z"/>
<path d="M1594 6394 c-18 -14 -18 -15 4 -4 12 6 22 13 22 15 0 8 -5 6 -26 -11z"/>
<path d="M11705 6010 c3 -5 8 -10 11 -10 2 0 4 5 4 10 0 6 -5 10 -11 10 -5 0
-7 -4 -4 -10z"/>
<path d="M11613 5993 c15 -2 37 -2 50 0 12 2 0 4 -28 4 -27 0 -38 -2 -22 -4z"/>
<path d="M2041 5956 c11 -9 69 -14 69 -6 0 6 -16 10 -37 10 -20 0 -34 -2 -32
-4z"/>
<path d="M2129 5923 c-11 -13 -11 -15 -1 -9 8 5 26 12 40 16 l27 8 -26 1 c-15
1 -33 -7 -40 -16z"/>
<path d="M2208 5933 c7 -3 16 -2 19 1 4 3 -2 6 -13 5 -11 0 -14 -3 -6 -6z"/>
<path d="M11641 5816 c10 -9 69 -36 69 -32 0 6 -55 36 -66 36 -4 0 -5 -2 -3
-4z"/>
<path d="M11710 5810 c8 -5 20 -10 25 -10 6 0 3 5 -5 10 -8 5 -19 10 -25 10
-5 0 -3 -5 5 -10z"/>
<path d="M12138 5803 c12 -2 30 -2 40 0 9 3 -1 5 -23 4 -22 0 -30 -2 -17 -4z"/>
<path d="M12408 5803 c12 -2 30 -2 40 0 9 3 -1 5 -23 4 -22 0 -30 -2 -17 -4z"/>
<path d="M11790 5716 c0 -3 14 -12 30 -21 17 -9 30 -13 30 -11 0 3 -13 12 -30
21 -16 9 -30 13 -30 11z"/>
<path d="M2205 5630 c-13 -6 -15 -9 -5 -9 8 0 22 4 30 9 18 12 2 12 -25 0z"/>
<path d="M2018 5613 c7 -3 16 -2 19 1 4 3 -2 6 -13 5 -11 0 -14 -3 -6 -6z"/>
<path d="M11970 5451 c5 -11 15 -23 21 -27 6 -3 3 5 -6 20 -20 30 -30 35 -15
7z"/>
<path d="M11996 5345 c4 -8 11 -15 16 -15 6 0 5 6 -2 15 -7 8 -14 15 -16 15
-2 0 -1 -7 2 -15z"/>
<path d="M12300 4776 c0 -2 8 -10 18 -17 15 -13 16 -12 3 4 -13 16 -21 21 -21
13z"/>
<path d="M12355 4730 c10 -11 20 -20 23 -20 3 0 -3 9 -13 20 -10 11 -20 20
-23 20 -3 0 3 -9 13 -20z"/>
<path d="M12694 3966 c11 -9 24 -16 30 -16 12 0 7 5 -24 19 -24 11 -24 11 -6
-3z"/>
<path d="M12576 3028 c3 -13 16 -41 27 -63 11 -22 31 -71 43 -110 12 -38 23
-61 23 -49 1 11 -8 47 -20 80 -12 32 -22 69 -24 81 -3 19 -43 83 -53 83 -2 0
0 -10 4 -22z"/>
<path d="M12493 2395 c0 -22 2 -30 4 -17 2 12 2 30 0 40 -3 9 -5 -1 -4 -23z"/>
<path d="M11806 2183 c-6 -14 -5 -15 5 -6 7 7 10 15 7 18 -3 3 -9 -2 -12 -12z"/>
<path d="M8968 1953 c6 -2 18 -2 25 0 6 3 1 5 -13 5 -14 0 -19 -2 -12 -5z"/>
<path d="M12071 1804 c0 -11 3 -14 6 -6 3 7 2 16 -1 19 -3 4 -6 -2 -5 -13z"/>
<path d="M12640 1801 c0 -5 9 -11 21 -14 12 -3 18 -10 15 -15 -6 -10 43 -27
52 -17 3 3 0 5 -6 5 -6 0 -19 8 -29 18 -21 22 -53 35 -53 23z"/>
<path d="M9190 1136 c0 -2 8 -10 18 -17 15 -13 16 -12 3 4 -13 16 -21 21 -21
13z"/>
<path d="M11100 980 c6 -11 13 -20 16 -20 2 0 0 9 -6 20 -6 11 -13 20 -16 20
-2 0 0 -9 6 -20z"/>
<path d="M11120 946 c0 -2 8 -10 18 -17 15 -13 16 -12 3 4 -13 16 -21 21 -21
13z"/>
</g>
</svg>
